#N canvas -8 -8 1920 1037 10;
#X declare -lib helmholtz~;
#N canvas -8 -8 1920 1037 receiveMessage 1;
#X obj 369 402 outlet;
#X obj 613 328 route /frequency;
#X obj 613 361 mtof;
#X obj 449 403 outlet;
#X obj 369 327 route /mode;
#X obj 613 405 outlet;
#X obj 449 327 route /harmonics;
#X obj 728 328 route /release;
#X obj 728 405 outlet;
#X text 685 289 Midi Input;
#X obj 958 223 route /octave;
#X obj 1051 223 route /gtrMode;
#X obj 1215 225 route /trigger;
#X obj 1310 225 route /sample;
#X text 1107 141 Guitar Input;
#X obj 958 408 outlet;
#X obj 1051 408 outlet;
#X obj 1215 414 outlet;
#X obj 1215 336 bng 15 250 50 0 empty empty empty 17 7 0 10 -262144
-1 -1;
#X obj 1310 416 outlet;
#X obj 799 69 udpreceive 9999;
#X obj 799 114 unpackOSC;
#X connect 1 0 2 0;
#X connect 2 0 5 0;
#X connect 4 0 0 0;
#X connect 6 0 3 0;
#X connect 7 0 8 0;
#X connect 10 0 15 0;
#X connect 11 0 16 0;
#X connect 12 0 18 0;
#X connect 13 0 19 0;
#X connect 18 0 17 0;
#X connect 20 0 21 0;
#X connect 21 0 4 0;
#X connect 21 0 6 0;
#X connect 21 0 1 0;
#X connect 21 0 7 0;
#X connect 21 0 10 0;
#X connect 21 0 11 0;
#X connect 21 0 12 0;
#X connect 21 0 13 0;
#X restore 571 194 pd receiveMessage;
#X floatatom 527 91 5 0 0 0 - - -;
#X text 526 73 Mode;
#X obj 584 30 vsl 15 128 0 1 0 0 empty empty empty 0 -9 0 10 -232576
-1 -1 0 1;
#X text 606 50 Harmonics;
#X floatatom 223 332 5 0 0 0 - - -;
#X text 214 311 Frequency;
#X obj 95 234 vsl 15 128 0 1 0 0 empty empty empty 0 -9 0 10 -258113
-1 -1 0 1;
#X text 79 211 Release;
#X floatatom 476 324 5 0 0 0 - - -;
#X text 472 303 Octave;
#X floatatom 521 324 5 0 0 0 - - -;
#X text 516 305 GTRMode;
#X obj 575 326 bng 15 250 50 0 empty empty empty 17 7 0 10 -262144
-1 -1;
#X text 531 287 SampleTrigger;
#X floatatom 614 325 5 0 0 0 - - -;
#X text 610 307 SampleSelect;
#X obj 293 317 select 1 2;
#X text 74 174 MIDI HANDLING HERE;
#X text 655 272 GUITAR HANDLING HERE;
#X obj 96 481 spigot;
#X msg 281 362 0;
#X msg 383 360 0;
#X msg 313 362 1;
#X msg 413 360 1;
#X obj 681 752 spigot;
#X text 189 495 PITCH TRACKING HERE;
#X obj 681 712 *;
#X obj 912 105 import helmholtz~;
#X obj 331 472 adc~;
#X obj 332 500 helmholtz~ 1024 1;
#X floatatom 582 680 5 0 0 0 - - -;
#X obj 425 639 *~;
#X msg 488 579 0;
#X obj 460 548 select 1 2;
#X obj 468 839 +~;
#X msg 460 580 0.5;
#N canvas 1015 419 450 300 additiveSynth 1;
#X obj 56 44 inlet;
#X text 55 18 Harmonics;
#X obj 151 43 inlet;
#X text 150 17 Frequency;
#X obj 59 256 outlet~;
#X restore 531 802 pd additiveSynth;
#X obj 467 892 outlet~;
#X connect 0 0 1 0;
#X connect 0 1 3 0;
#X connect 0 2 5 0;
#X connect 0 3 7 0;
#X connect 0 4 9 0;
#X connect 0 5 11 0;
#X connect 0 6 13 0;
#X connect 0 7 15 0;
#X connect 1 0 17 0;
#X connect 3 0 37 0;
#X connect 5 0 20 0;
#X connect 9 0 27 1;
#X connect 11 0 34 0;
#X connect 17 0 23 0;
#X connect 17 0 22 0;
#X connect 17 1 21 0;
#X connect 17 1 24 0;
#X connect 20 0 37 1;
#X connect 21 0 20 1;
#X connect 22 0 25 1;
#X connect 23 0 20 1;
#X connect 24 0 25 1;
#X connect 25 0 37 1;
#X connect 27 0 25 0;
#X connect 29 0 30 0;
#X connect 30 0 32 0;
#X connect 30 1 31 0;
#X connect 31 0 27 0;
#X connect 32 0 35 0;
#X connect 33 0 32 1;
#X connect 34 0 36 0;
#X connect 34 1 33 0;
#X connect 35 0 38 0;
#X connect 36 0 32 1;
#X connect 37 0 35 1;
