#N canvas 0 2 1362 674 10;
#X declare -lib mrpeach;
#X obj 786 86 import mrpeach;
#X obj 783 127 udpreceive 9999;
#X obj 783 154 unpackOSC;
#X obj 668 229 route /frequency;
#X obj 870 219 route /harmonics;
#X obj 783 228 route /mode;
#X obj 897 268 vsl 15 128 0 1 0 0 empty empty empty 0 -9 0 10 -232576
-1 -1 0 1;
#X obj 668 267 mtof;
#X floatatom 668 303 10 0 0 0 - - -;
#X floatatom 783 261 5 0 0 0 - - -;
#X obj 783 300 select 0 1;
#X msg 783 338 1;
#X msg 811 338 0;
#X obj 598 587 dac~;
#X obj 594 371 / 4;
#X obj 1037 230 route /release;
#X obj 1269 232 route /octave;
#N canvas -8 -8 1920 1037 receiveMessage 1;
#X obj 421 283 outlet;
#X obj 613 328 route /frequency;
#X obj 613 361 mtof;
#X obj 501 284 outlet;
#X obj 421 208 route /mode;
#X obj 613 405 outlet;
#X obj 501 208 route /harmonics;
#X obj 728 328 route /release;
#X obj 728 405 outlet;
#X text 685 289 Midi Input;
#X obj 958 223 route /octave;
#X obj 1051 223 route /gtrMode;
#X obj 1215 225 route /trigger;
#X obj 1310 225 route /sample;
#X text 1147 183 Guitar Input;
#X obj 958 408 outlet;
#X obj 1051 408 outlet;
#X obj 1215 414 outlet;
#X obj 1215 336 bng 15 250 50 0 empty empty empty 17 7 0 10 -262144
-1 -1;
#X obj 1310 416 outlet;
#X obj 799 69 udpreceive 9999;
#X obj 799 114 unpackOSC;
#X connect 1 0 2 0;
#X connect 2 0 5 0;
#X connect 4 0 0 0;
#X connect 6 0 3 0;
#X connect 7 0 8 0;
#X connect 10 0 15 0;
#X connect 11 0 16 0;
#X connect 12 0 18 0;
#X connect 13 0 19 0;
#X connect 18 0 17 0;
#X connect 20 0 21 0;
#X connect 21 0 4 0;
#X connect 21 0 6 0;
#X connect 21 0 1 0;
#X connect 21 0 7 0;
#X connect 21 0 10 0;
#X connect 21 0 11 0;
#X connect 21 0 12 0;
#X connect 21 0 13 0;
#X restore 250 157 pd receiveMessage;
#X floatatom 177 174 5 0 0 0 - - -;
#X text 176 156 Mode;
#X obj 178 233 vsl 15 128 0 127 0 0 empty empty empty 0 -9 0 10 -262144
-1 -1 0 1;
#X text 117 227 Harmonics;
#X floatatom 210 246 5 0 0 0 - - -;
#X text 201 225 Frequency;
#X obj 265 235 vsl 15 128 0 127 0 0 empty empty empty 0 -9 0 10 -262144
-1 -1 0 1;
#X text 249 212 Release;
#X floatatom 304 248 5 0 0 0 - - -;
#X text 299 228 Octave;
#X floatatom 348 249 5 0 0 0 - - -;
#X text 343 230 GTRMode;
#X connect 1 0 2 0;
#X connect 2 0 3 0;
#X connect 2 0 5 0;
#X connect 2 0 4 0;
#X connect 3 0 7 0;
#X connect 4 0 6 0;
#X connect 5 0 9 0;
#X connect 7 0 8 0;
#X connect 8 0 14 0;
#X connect 9 0 10 0;
#X connect 10 0 11 0;
#X connect 10 1 12 0;
#X connect 17 0 18 0;
#X connect 17 1 20 0;
#X connect 17 2 22 0;
#X connect 17 3 24 0;
#X connect 17 4 26 0;
#X connect 17 5 28 0;
