#N canvas -8 -8 1920 1037 10;
#X declare -lib mrpeach;
#X obj 815 85 import mrpeach;
#X obj 815 245 udpreceive 9999;
#X obj 815 272 unpackOSC;
#X obj 700 347 route /frequency;
#X obj 929 348 route /harmonics;
#X obj 815 346 route /mode;
#X obj 929 386 vsl 15 128 0 1 0 0 empty empty empty 0 -9 0 10 -232576
-1 -1 0 1;
#X obj 700 385 mtof;
#X floatatom 700 421 5 0 0 0 - - -;
#X floatatom 815 379 5 0 0 0 - - -;
#X obj 815 418 select 0 1;
#X obj 813 526 spigot;
#X msg 815 456 1;
#X msg 843 456 0;
#X obj 813 576 osc~;
#X obj 812 619 dac~;
#X connect 1 0 2 0;
#X connect 2 0 3 0;
#X connect 2 0 5 0;
#X connect 2 0 4 0;
#X connect 3 0 7 0;
#X connect 4 0 6 0;
#X connect 5 0 9 0;
#X connect 7 0 8 0;
#X connect 8 0 11 0;
#X connect 9 0 10 0;
#X connect 10 0 12 0;
#X connect 10 1 13 0;
#X connect 11 0 14 0;
#X connect 12 0 11 1;
#X connect 13 0 11 1;
#X connect 14 0 15 0;
#X connect 14 0 15 1;
