#N canvas 211 157 1117 621 10;
#X obj 78 196 udpsend;
#X obj 79 136 packOSC;
#X msg 142 133 connect "sylip" \, SylPort;
#X obj 78 37 arduino;
#X text 87 84 HANDLE_ARDUINO;
#N canvas 84 89 1069 613 Inst 0;
#X obj 93 395 dac~;
#X obj 282 -186 +~;
#X obj 80 314 +~;
#X obj 418 -122 hip~ 5;
#X obj 66 2 +~;
#X obj 134 1 +~;
#X obj 33 -45 *~ 0.75;
#X obj 121 -43 *~ 0.75;
#X obj 266 218 hsl 128 15 0 1 0 0 empty empty empty -2 -8 0 10 -262144
-1 -1 12700 1;
#X obj 438 -164 adc~;
#X obj 10 323 *~ 0.5;
#X obj 268 -46 hsl 128 15 0 10000 0 0 empty empty empty -2 -8 0 10
-262144 -1 -1 0 1;
#X obj 23 65 delwrite~ delay2 2000;
#X obj 11 30 delwrite~ delay1 2000;
#X obj 11 137 delread~ delay2 300;
#X obj 12 114 delread~ delay1 300;
#X text 260 -84 Hi Pass Filter;
#X floatatom 266 -69 22 0 127 0 - - -;
#X text 232 -47 0 Hz;
#X text 399 -46 10000 hZ;
#X obj 266 12 hsl 128 15 30 3000 0 0 empty empty empty -2 -8 0 10 -262144
-1 -1 0 1;
#X obj 93 345 lop~;
#X floatatom 263 -7 22 0 0 0 - - -;
#X text 261 -24 Lo Pass Filter;
#X text 399 12 3000 hZ;
#X obj 266 97 hsl 128 15 0 5000 0 0 empty empty empty -2 -8 0 10 -262144
-1 -1 6468 1;
#X obj 267 141 hsl 128 15 0 5000 0 0 empty empty empty -2 -8 0 10 -262144
-1 -1 5785 1;
#X obj 259 -117 cnv 15 100 25 empty empty empty 20 12 0 14 -232576
-66577 0;
#X text 266 -114 Filtering;
#X obj 264 47 cnv 15 100 25 empty empty empty 20 12 0 14 -104434 -66577
0;
#X text 272 50 Delay Length;
#X text 263 79 Delay 1;
#X text 263 124 Delay 2;
#X text 232 98 0 ms;
#X text 399 96 5000 ms;
#X text 231 142 0 ms;
#X text 398 139 5000 ms;
#X obj 264 176 cnv 15 100 25 empty empty empty 20 12 0 14 -159681 -66577
0;
#X text 272 179 Feedback;
#X text 244 218 0%;
#X text 399 217 100%;
#N canvas 0 22 450 300 (subpatch) 0;
#X coords 0 1 100 -1 255 375 1;
#X restore 223 -131 graph;
#X text 232 12 30 Hz;
#X obj 512 116 arduino;
#X msg 565 115 reset;
#X msg 532 -117 devices;
#X msg 537 -86 open 1;
#X msg 541 -55 close;
#X msg 601 -117 pinMode 14 2;
#X msg 608 -83 pinMode 15 2;
#X msg 617 -17 pinMode 17 2;
#X msg 622 16 pinMode 18 2;
#X msg 628 47 pinMode 19 2;
#X msg 733 -57 pinMode 2 0;
#X msg 738 -32 pinMode 3 0;
#X msg 739 -1 pinMode 4 0;
#X floatatom 500 224 5 0 0 0 - - -;
#X obj 497 251 * 10000;
#X floatatom 555 224 5 0 0 0 - - -;
#X obj 552 251 * 10000;
#X floatatom 617 223 5 0 0 0 - - -;
#X floatatom 672 223 5 0 0 0 - - -;
#X obj 614 250 * 5000;
#X obj 669 250 * 5000;
#X obj 501 191 route 0 1 2 3 4;
#X msg 612 -50 pinMode 16 2;
#X floatatom 724 223 5 0 0 0 - - -;
#X obj 721 250 * 100;
#X obj 503 153 route analog;
#X obj 487 279 route digital;
#X obj 483 308 route 2;
#X obj 481 328 tgl 15 0 empty empty empty 17 7 0 10 -262144 -1 -1 0
1;
#X obj 478 352 spigot;
#X obj 477 377 tgl 15 0 empty empty empty 17 7 0 10 -262144 -1 -1 0
1;
#X obj 529 353 sel 0;
#X obj 533 378 tgl 15 0 empty empty empty 17 7 0 10 -262144 -1 -1 0
1;
#X connect 1 0 4 0;
#X connect 1 0 5 0;
#X connect 2 0 10 0;
#X connect 3 0 1 0;
#X connect 4 0 13 0;
#X connect 5 0 12 0;
#X connect 6 0 4 1;
#X connect 7 0 5 1;
#X connect 8 0 7 1;
#X connect 8 0 6 1;
#X connect 9 0 3 0;
#X connect 9 1 3 0;
#X connect 10 0 21 0;
#X connect 11 0 3 1;
#X connect 11 0 17 0;
#X connect 14 0 2 1;
#X connect 14 0 7 0;
#X connect 15 0 2 0;
#X connect 15 0 6 0;
#X connect 20 0 21 1;
#X connect 20 0 22 0;
#X connect 21 0 0 0;
#X connect 21 0 0 1;
#X connect 25 0 15 0;
#X connect 26 0 14 0;
#X connect 43 0 68 0;
#X connect 43 0 69 0;
#X connect 45 0 43 0;
#X connect 46 0 43 0;
#X connect 47 0 43 0;
#X connect 48 0 43 0;
#X connect 49 0 43 0;
#X connect 50 0 43 0;
#X connect 51 0 43 0;
#X connect 52 0 43 0;
#X connect 53 0 43 0;
#X connect 54 0 43 0;
#X connect 55 0 43 0;
#X connect 56 0 57 0;
#X connect 57 0 11 0;
#X connect 58 0 59 0;
#X connect 59 0 20 0;
#X connect 60 0 62 0;
#X connect 61 0 63 0;
#X connect 62 0 25 0;
#X connect 63 0 26 0;
#X connect 64 0 56 0;
#X connect 64 1 58 0;
#X connect 64 2 60 0;
#X connect 64 3 61 0;
#X connect 64 5 66 0;
#X connect 65 0 43 0;
#X connect 66 0 67 0;
#X connect 67 0 8 0;
#X connect 68 0 64 0;
#X connect 69 0 70 0;
#X connect 70 0 71 0;
#X connect 71 0 72 0;
#X connect 71 0 74 0;
#X connect 72 0 73 0;
#X connect 74 0 75 0;
#X restore 180 442 pd Inst 1;
#X connect 1 0 0 0;
#X connect 2 0 0 0;
