#N canvas 0 0 1370 699 10;
#X declare -lib mrpeach;
#X obj 601 85 import mrpeach;
#X obj 598 126 udpreceive 9999;
#X obj 598 153 unpackOSC;
#X obj 483 228 route /frequency;
#X obj 712 229 route /harmonics;
#X obj 598 227 route /mode;
#X obj 712 267 vsl 15 128 0 1 0 0 empty empty empty 0 -9 0 10 -232576
-1 -1 6331 1;
#X obj 483 266 mtof;
#X floatatom 483 302 5 0 0 0 - - -;
#X floatatom 598 260 5 0 0 0 - - -;
#X obj 598 299 select 0 1;
#X obj 596 407 spigot;
#X msg 598 337 1;
#X msg 626 337 0;
#X obj 596 457 osc~;
#X obj 598 587 dac~;
#X obj 598 493 dist~ 7;
#X obj 599 528 lop~;
#X obj 804 381 vsl 15 128 0 127 0 0 empty empty empty 0 -9 0 10 -262144
-1 -1 12700 1;
#X obj 409 370 / 4;
#X obj 528 459 osc~;
#X obj 531 530 lop~;
#X obj 424 487 / 8;
#X obj 549 572 *~ 0.5;
#X obj 530 495 dist~ 3;
#X connect 1 0 2 0;
#X connect 2 0 3 0;
#X connect 2 0 5 0;
#X connect 2 0 4 0;
#X connect 3 0 7 0;
#X connect 4 0 6 0;
#X connect 5 0 9 0;
#X connect 7 0 8 0;
#X connect 8 0 19 0;
#X connect 8 0 22 0;
#X connect 9 0 10 0;
#X connect 10 0 12 0;
#X connect 10 1 13 0;
#X connect 11 0 14 0;
#X connect 12 0 11 1;
#X connect 13 0 11 1;
#X connect 14 0 16 0;
#X connect 16 0 17 0;
#X connect 17 0 23 0;
#X connect 18 0 17 1;
#X connect 18 0 21 1;
#X connect 19 0 11 0;
#X connect 20 0 24 0;
#X connect 21 0 23 0;
#X connect 22 0 20 0;
#X connect 23 0 15 0;
#X connect 23 0 15 1;
#X connect 24 0 21 0;
