#N canvas 485 378 958 479 10;
#X msg 335 167 \; \$1 \$2;
#X obj 744 241 r freq;
#X obj 434 301 *~;
#X obj 537 337 +~;
#X obj 640 354 +~;
#X obj 640 445 outlet~;
#X floatatom 434 102 10 0 0 0 - - -, f 10;
#N canvas 67 89 450 300 UDPHANDLER 1;
#X obj 46 43 unpackOSC;
#X obj 46 17 udpreceive 9999;
#X obj 46 122 outlet;
#X obj 96 122 outlet;
#X obj 146 122 outlet;
#X obj 46 74 route /GTR /FILTER /FPARAM /RELOAD;
#X obj 196 186 outlet;
#X obj 196 141 mtof;
#X connect 0 0 5 0;
#X connect 1 0 0 0;
#X connect 5 0 2 0;
#X connect 5 1 3 0;
#X connect 5 2 4 0;
#X connect 5 3 7 0;
#X connect 7 0 6 0;
#X restore 642 8 pd UDPHANDLER;
#N canvas 67 89 502 659 Filters 1;
#X obj 17 251 inlet~;
#X obj 279 316 inlet;
#X obj 156 374 lop~;
#X obj 242 375 hip~;
#X obj 148 37 inlet;
#X obj 99 474 outlet~;
#X obj 148 70 select 0 1 2;
#X msg 88 233 0;
#X msg 119 233 1;
#X msg 165 233 0;
#X msg 196 233 1;
#X msg 242 233 0;
#X msg 272 233 1;
#X obj 98 398 *~;
#X obj 156 318 *~;
#X obj 243 300 *~;
#X floatatom 279 55 5 0 0 0 - - -, f 5;
#X connect 0 0 13 0;
#X connect 0 0 14 0;
#X connect 0 0 15 0;
#X connect 1 0 2 1;
#X connect 1 0 3 1;
#X connect 2 0 5 0;
#X connect 3 0 5 0;
#X connect 4 0 6 0;
#X connect 4 0 16 0;
#X connect 6 0 8 0;
#X connect 6 0 9 0;
#X connect 6 0 11 0;
#X connect 6 1 7 0;
#X connect 6 1 10 0;
#X connect 6 1 11 0;
#X connect 6 2 7 0;
#X connect 6 2 9 0;
#X connect 6 2 12 0;
#X connect 7 0 13 1;
#X connect 8 0 13 1;
#X connect 9 0 14 1;
#X connect 10 0 14 1;
#X connect 11 0 15 1;
#X connect 12 0 15 1;
#X connect 13 0 5 0;
#X connect 14 0 2 0;
#X connect 15 0 3 0;
#X restore 639 413 pd Filters;
#N canvas 67 89 450 300 samplePlayer 1;
#X obj 167 124 inlet;
#X obj 167 216 outlet;
#X obj 167 165 bng 15 250 50 0 empty empty empty 17 7 0 10 -262144
-1 -1;
#X connect 0 0 2 0;
#X restore 766 111 pd samplePlayer;
#X msg 322 98 reset;
#X obj 260 83 adc~;
#X obj 261 138 csound6~ FUCKPD.csd;
#X obj 779 443 dac~;
#X obj 434 159 select 0 1;
#X msg 434 189 0;
#X obj 434 132 >= 1;
#X msg 465 190 1;
#X text 414 367 What a logical and well designed language!;
#X text 307 7 Sometimes \, PD Guesses that the value is 7e+08 instead
of 0 or 1 Great \, glad we have to use it!;
#X obj 744 286 osc~;
#X obj 783 306 *~ 0.3;
#X connect 1 0 20 0;
#X connect 2 0 3 0;
#X connect 3 0 4 0;
#X connect 4 0 8 0;
#X connect 6 0 16 0;
#X connect 7 0 6 0;
#X connect 7 1 8 1;
#X connect 7 2 8 2;
#X connect 7 3 9 0;
#X connect 8 0 5 0;
#X connect 8 0 13 0;
#X connect 8 0 13 1;
#X connect 10 0 12 0;
#X connect 11 0 12 0;
#X connect 12 0 2 0;
#X connect 12 2 0 0;
#X connect 14 0 15 0;
#X connect 14 1 17 0;
#X connect 15 0 2 1;
#X connect 16 0 14 0;
#X connect 17 0 2 1;
#X connect 20 0 21 0;
#X connect 21 0 3 1;
